<?xml version="1.0" encoding="UTF-8"?>
<svg xmlns:xlink="http://www.w3.org/1999/xlink" xmlns="http://www.w3.org/2000/svg" fill-opacity="1" color-rendering="auto" color-interpolation="auto" text-rendering="auto" stroke="black" stroke-linecap="square" width="380" stroke-miterlimit="10" shape-rendering="auto" stroke-opacity="1" fill="black" stroke-dasharray="none" font-weight="normal" stroke-width="1" height="248" font-family="'Dialog'" font-style="normal" stroke-linejoin="miter" font-size="12" stroke-dashoffset="0" image-rendering="auto">
<!--Generated by ySVG-->
<defs id="genericDefs"/>
<g>
<defs id="defs1">
<clipPath clipPathUnits="userSpaceOnUse" id="clipPath1">
<path d="M0 0 L380 0 L380 248 L0 248 L0 0 Z"/>
</clipPath>
<clipPath clipPathUnits="userSpaceOnUse" id="clipPath2">
<path d="M-4 153 L376 153 L376 401 L-4 401 L-4 153 Z"/>
</clipPath>
<clipPath clipPathUnits="userSpaceOnUse" id="clipPath3">
<path d="M-29.1483 193.776 L-231.4727 -5.2361 L-101.5912 -137.2794 L100.7333 61.7327 L-29.1483 193.776 Z"/>
</clipPath>
<clipPath clipPathUnits="userSpaceOnUse" id="clipPath4">
<path d="M193.2718 91.4907 L-90.4994 95.3511 L-93.0188 -89.8469 L190.7524 -93.7073 L193.2718 91.4907 Z"/>
</clipPath>
<clipPath clipPathUnits="userSpaceOnUse" id="clipPath5">
<path d="M85.1809 62.5619 L-133.1126 243.915 L-251.4694 101.4498 L-33.1759 -79.9033 L85.1809 62.5619 Z"/>
</clipPath>
<clipPath clipPathUnits="userSpaceOnUse" id="clipPath6">
<path d="M-35.2778 83.1972 L-250.173 -102.1701 L-129.1965 -242.4175 L85.6987 -57.0503 L-35.2778 83.1972 Z"/>
</clipPath>
<clipPath clipPathUnits="userSpaceOnUse" id="clipPath7">
<path d="M99.1351 -61.488 L-101.461 139.2661 L-232.4794 8.3507 L-31.8833 -192.4034 L99.1351 -61.488 Z"/>
</clipPath>
<clipPath clipPathUnits="userSpaceOnUse" id="clipPath8">
<path d="M97.3109 -105.3567 L94.318 178.425 L-90.8869 176.4717 L-87.894 -107.31 L97.3109 -105.3567 Z"/>
</clipPath>
<clipPath clipPathUnits="userSpaceOnUse" id="clipPath9">
<path d="M20.9429 97.7474 L-261.5551 70.6206 L-243.8513 -113.7465 L38.6468 -86.6197 L20.9429 97.7474 Z"/>
</clipPath>
<clipPath clipPathUnits="userSpaceOnUse" id="clipPath10">
<path d="M-86.8404 -91.7727 L195.6577 -64.6459 L177.9538 119.7212 L-104.5442 92.5944 L-86.8404 -91.7727 Z"/>
</clipPath>
<clipPath clipPathUnits="userSpaceOnUse" id="clipPath11">
<path d="M-177.958 -56.5872 L40.3355 -237.9404 L158.6923 -95.4751 L-59.6012 85.878 L-177.958 -56.5872 Z"/>
</clipPath>
<clipPath clipPathUnits="userSpaceOnUse" id="clipPath12">
<path d="M-179.5317 -71.6954 L102.2351 -105.585 L124.3525 78.3048 L-157.4142 112.1945 L-179.5317 -71.6954 Z"/>
</clipPath>
</defs>
<g fill="white" transform="translate(4,-153)" stroke="white">
<rect x="-4" width="380" height="248" y="153" clip-path="url(#clipPath2)" stroke="none"/>
</g>
<g fill="rgb(180,180,180)" stroke-miterlimit="1.45" stroke-width="3" transform="matrix(1,0,0,1,4,-153)" stroke="rgb(180,180,180)">
<path fill="none" d="M227.405 289.328 L158.7142 356.8942" clip-path="url(#clipPath2)"/>
<path d="M0 0 L-12 -5 L-9 0 L-12 5 Z" clip-path="url(#clipPath3)" transform="matrix(-0.9546,0.939,-0.939,-0.9546,150.1229,365.3448)" stroke="none"/>
</g>
<g fill="rgb(180,180,180)" stroke-miterlimit="1.45" stroke-width="3" transform="matrix(1,0,0,1,4,-153)" stroke="rgb(180,180,180)">
<path fill="none" d="M335.2952 280.1316 L265.1471 279.1773" clip-path="url(#clipPath2)"/>
<path d="M0 0 L-12 -5 L-9 0 L-12 5 Z" clip-path="url(#clipPath4)" transform="matrix(-1.3389,-0.0182,0.0182,-1.3389,253.0973,279.0134)" stroke="none"/>
</g>
<g fill="rgb(180,180,180)" stroke-miterlimit="1.45" stroke-width="3" transform="matrix(1,0,0,1,4,-153)" stroke="rgb(180,180,180)">
<path fill="none" d="M125.7437 369.6943 L39.4691 298.0193" clip-path="url(#clipPath2)"/>
<path d="M0 0 L-12 -5 L-9 0 L-12 5 Z" clip-path="url(#clipPath5)" transform="matrix(-1.0299,-0.8556,0.8556,-1.0299,30.1997,290.3186)" stroke="none"/>
</g>
<g fill="rgb(180,180,180)" stroke-miterlimit="1.45" stroke-width="3" transform="matrix(1,0,0,1,4,-153)" stroke="rgb(180,180,180)">
<path fill="none" d="M126.1039 187.891 L42.1197 260.3353" clip-path="url(#clipPath2)"/>
<path d="M0 0 L-12 -5 L-9 0 L-12 5 Z" clip-path="url(#clipPath6)" transform="matrix(-1.0139,0.8746,-0.8746,-1.0139,32.9946,268.2065)" stroke="none"/>
</g>
<g fill="rgb(180,180,180)" stroke-miterlimit="1.45" stroke-width="3" transform="matrix(1,0,0,1,4,-153)" stroke="rgb(180,180,180)">
<path fill="none" d="M227.4963 268.1985 L156.5825 197.2289" clip-path="url(#clipPath2)"/>
<path d="M0 0 L-12 -5 L-9 0 L-12 5 Z" clip-path="url(#clipPath7)" transform="matrix(-0.9464,-0.9472,0.9472,-0.9464,148.0646,188.7043)" stroke="none"/>
</g>
<g fill="rgb(180,180,180)" stroke-miterlimit="1.45" stroke-width="3" transform="matrix(1,0,0,1,4,-153)" stroke="rgb(180,180,180)">
<path fill="none" d="M139.271 360.8643 L138.5642 293.8528" clip-path="url(#clipPath2)"/>
<path d="M0 0 L-12 -5 L-9 0 L-12 5 Z" clip-path="url(#clipPath8)" transform="matrix(-0.0141,-1.3389,1.3389,-0.0141,138.4371,281.8026)" stroke="none"/>
</g>
<g fill="rgb(180,180,180)" stroke-miterlimit="1.45" stroke-width="3" transform="matrix(1,0,0,1,4,-153)" stroke="rgb(180,180,180)">
<path fill="none" d="M124.2803 272.1661 L48.4199 279.4506" clip-path="url(#clipPath2)"/>
<path d="M0 0 L-12 -5 L-9 0 L-12 5 Z" clip-path="url(#clipPath9)" transform="matrix(-1.3329,0.128,-0.128,-1.3329,36.4242,280.6024)" stroke="none"/>
</g>
<g fill="rgb(180,180,180)" stroke-miterlimit="1.45" stroke-width="3" transform="matrix(1,0,0,1,4,-153)" stroke="rgb(180,180,180)">
<path fill="none" d="M35.635 272.6414 L111.4954 265.3569" clip-path="url(#clipPath2)"/>
<path d="M0 0 L-12 -5 L-9 0 L-12 5 Z" clip-path="url(#clipPath10)" transform="matrix(1.3329,-0.128,0.128,1.3329,123.4911,264.205)" stroke="none"/>
</g>
<g fill="rgb(180,180,180)" stroke-miterlimit="1.45" stroke-width="3" transform="matrix(1,0,0,1,4,-153)" stroke="rgb(180,180,180)">
<path fill="none" d="M35.3218 284.1733 L121.5964 355.8482" clip-path="url(#clipPath2)"/>
<path d="M0 0 L-12 -5 L-9 0 L-12 5 Z" clip-path="url(#clipPath11)" transform="matrix(1.0299,0.8556,-0.8556,1.0299,130.8658,363.549)" stroke="none"/>
</g>
<g fill="rgb(180,180,180)" stroke-miterlimit="1.45" stroke-width="3" transform="matrix(1,0,0,1,4,-153)" stroke="rgb(180,180,180)">
<path fill="none" d="M153.1716 268.5947 L211.2414 275.5791" clip-path="url(#clipPath2)"/>
<path d="M0 0 L-12 -5 L-9 0 L-12 5 Z" clip-path="url(#clipPath12)" transform="matrix(1.3294,0.1599,-0.1599,1.3294,223.2061,277.0181)" stroke="none"/>
</g>
<g fill="silver" transform="matrix(1,0,0,1,4,-153)" stroke="silver">
<circle r="15" clip-path="url(#clipPath2)" cx="350.2938" cy="280.3356" stroke="none"/>
</g>
<g stroke-miterlimit="1.45" font-family="sans-serif" transform="matrix(1,0,0,1,4,-153)" stroke-linecap="butt">
<text x="346.2938" xml:space="preserve" y="284.8708" clip-path="url(#clipPath2)" stroke="none">1</text>
<circle fill="none" r="15" clip-path="url(#clipPath2)" cx="350.2938" cy="280.3356" stroke="rgb(51,51,51)"/>
</g>
<g fill="silver" transform="matrix(1,0,0,1,4,-153)" stroke="silver">
<circle r="15" clip-path="url(#clipPath2)" cx="238.0987" cy="278.8093" stroke="none"/>
</g>
<g stroke-miterlimit="1.45" font-family="sans-serif" transform="matrix(1,0,0,1,4,-153)" stroke-linecap="butt">
<text x="234.0987" xml:space="preserve" y="283.3445" clip-path="url(#clipPath2)" stroke="none">2</text>
<circle fill="none" r="15" clip-path="url(#clipPath2)" cx="238.0987" cy="278.8093" stroke="rgb(51,51,51)"/>
</g>
<g fill="silver" transform="matrix(1,0,0,1,4,-153)" stroke="silver">
<circle r="15" clip-path="url(#clipPath2)" cx="139.4291" cy="375.8635" stroke="none"/>
</g>
<g stroke-miterlimit="1.45" font-family="sans-serif" transform="matrix(1,0,0,1,4,-153)" stroke-linecap="butt">
<text x="135.4292" xml:space="preserve" y="380.3987" clip-path="url(#clipPath2)" stroke="none">3</text>
<circle fill="none" r="15" clip-path="url(#clipPath2)" cx="139.4291" cy="375.8635" stroke="rgb(51,51,51)"/>
</g>
<g fill="silver" transform="matrix(1,0,0,1,4,-153)" stroke="silver">
<circle r="15" clip-path="url(#clipPath2)" cx="138.2789" cy="266.8035" stroke="none"/>
</g>
<g stroke-miterlimit="1.45" font-family="sans-serif" transform="matrix(1,0,0,1,4,-153)" stroke-linecap="butt">
<text x="134.2789" xml:space="preserve" y="271.3386" clip-path="url(#clipPath2)" stroke="none">4</text>
<circle fill="none" r="15" clip-path="url(#clipPath2)" cx="138.2789" cy="266.8035" stroke="rgb(51,51,51)"/>
</g>
<g fill="silver" transform="matrix(1,0,0,1,4,-153)" stroke="silver">
<circle r="15" clip-path="url(#clipPath2)" cx="137.4621" cy="178.0935" stroke="none"/>
</g>
<g stroke-miterlimit="1.45" font-family="sans-serif" transform="matrix(1,0,0,1,4,-153)" stroke-linecap="butt">
<text x="133.4621" xml:space="preserve" y="182.6287" clip-path="url(#clipPath2)" stroke="none">5</text>
<circle fill="none" r="15" clip-path="url(#clipPath2)" cx="137.4621" cy="178.0935" stroke="rgb(51,51,51)"/>
</g>
<g fill="silver" transform="matrix(1,0,0,1,4,-153)" stroke="silver">
<circle r="15" clip-path="url(#clipPath2)" cx="21.6364" cy="278.004" stroke="none"/>
</g>
<g stroke-miterlimit="1.45" font-family="sans-serif" transform="matrix(1,0,0,1,4,-153)" stroke-linecap="butt">
<text x="17.6364" xml:space="preserve" y="282.5392" clip-path="url(#clipPath2)" stroke="none">6</text>
<circle fill="none" r="15" clip-path="url(#clipPath2)" cx="21.6364" cy="278.004" stroke="rgb(51,51,51)"/>
</g>
</g>
</svg>
